Coordinates
version=1
nRows=9
nColumns=48
inDegrees=yes

Units are S.I. units (second, meters, Newtons, ...)
Angles are in degrees.

endheader
time	pelvis_tilt	pelvis_list	pelvis_rotation	pelvis_tx	pelvis_ty	pelvis_tz	hip_flexion_r	hip_adduction_r	hip_rotation_r	knee_angle_r	knee_adduction_r	knee_rotation_r	knee_anterior_posterior_r	knee_inferior_superior_r	knee_medial_lateral_r	ankle_angle_r	subtalar_angle_r	mtp_angle_r	hip_flexion_l	hip_adduction_l	hip_rotation_l	knee_angle_l	knee_adduction_l	knee_rotation_l	knee_anterior_posterior_l	knee_inferior_superior_l	knee_medial_lateral_l	ankle_angle_l	subtalar_angle_l	mtp_angle_l	lumbar_extension	lumbar_bending	lumbar_rotation	arm_flex_r	arm_add_r	arm_rot_r	elbow_flex_r	pro_sup_r	wrist_flex_r	wrist_dev_r	arm_flex_l	arm_add_l	arm_rot_l	elbow_flex_l	pro_sup_l	wrist_flex_l	wrist_dev_l
      2.01000000	     -8.53628415	      8.66704942	      8.64977763	     -1.00994653	      0.87569772	      0.21311987	     27.84309013	     -3.92587204	      3.34898867	    -62.02190681	      0.98440452	      4.11446608	      0.01529186	     -0.40000000	      0.00000000	     23.16032379	      0.00000000	      0.00000000	     60.94978054	      9.49952969	     -5.83184706	   -105.31125920	      0.98440452	      4.11446608	      0.00000000	     -0.40000000	      0.00000000	     -5.04638241	      0.00000000	      0.00000000	    -23.50257416	     -2.68924668	      0.73107573	      7.72436827	    -37.70667943	     12.90418581	     45.58530436	     74.36396971	      0.00000000	      0.00000000	     12.32396048	    -14.81020871	     16.10374918	     59.85843613	     71.52178597	      0.00000000	      0.00000000
      2.02000000	     -8.43874701	      9.17622135	      8.33438534	     -1.00202551	      0.87897753	      0.21245199	     26.44768653	     -4.40632963	      3.54769614	    -60.72343165	      0.98440452	      4.11446608	      0.01528358	     -0.40000000	      0.00000000	     23.47185916	      0.00000000	      0.00000000	     62.18731695	      9.40284856	     -6.42036810	   -105.34164452	      0.98440452	      4.11446608	      0.00000000	     -0.40000000	      0.00000000	     -5.14729439	      0.00000000	      0.00000000	    -23.06008605	     -3.53024652	      1.13250677	      5.99570076	    -39.46957270	      8.58349952	     50.46651807	     76.73523197	      0.00000000	      0.00000000	     10.86954429	    -16.20411934	     15.49574295	     66.51369496	     75.99295727	      0.00000000	      0.00000000
      2.03000000	     -8.25725197	      9.64714247	      7.94075990	     -0.99344664	      0.88326151	      0.21190597	     24.78006346	     -4.81762691	      3.75505820	    -59.11457805	      0.98440452	      4.11446608	      0.01526756	     -0.40000000	      0.00000000	     23.77114811	      0.00000000	      0.00000000	     63.34163361	      9.12044092	     -7.00849439	   -105.44287729	      0.98440452	      4.11446608	      0.00000000	     -0.40000000	      0.00000000	     -5.24090866	      0.00000000	      0.00000000	    -22.67682665	     -4.33380400	      1.14588051	      5.01626466	    -41.36536495	      6.12871760	     55.20882765	     77.22299163	      0.00000000	      0.00000000	      8.82163632	    -17.47213669	     14.05723319	     73.68362095	     77.07698521	      0.00000000	      0.00000000
      2.04000000	     -8.21268569	     10.31995885	      7.55777817	     -0.98440199	      0.88835831	      0.21109685	     23.09207635	     -5.54516339	      3.94889089	    -57.23577330	      0.98440452	      4.11446608	      0.01525211	     -0.40000000	      0.00000000	     24.10958044	      0.00000000	      0.00000000	     64.57249834	      9.05650622	     -7.74361105	   -105.55729276	      0.98440452	      4.11446608	      0.00000000	     -0.40000000	      0.00000000	     -5.10165220	      0.00000000	      0.00000000	    -22.13561824	     -5.32338725	      1.54849976	      2.70617941	    -42.85598457	      1.65282041	     60.77638198	     78.53388897	      0.00000000	      0.00000000	      7.31377334	    -18.73531090	     13.28031667	     80.30761103	     80.13895410	      0.00000000	      0.00000000
      2.05000000	     -8.05469566	     10.96749311	      7.17592925	     -0.97458232	      0.89444193	      0.21051432	     21.11254941	     -6.22117424	      4.18790646	    -55.09167835	      0.98440452	      4.11446608	      0.01523822	     -0.40000000	      0.00000000	     24.05048556	      0.00000000	      0.00000000	     65.67765001	      8.84777076	     -8.45856266	   -105.78750378	      0.98440452	      4.11446608	      0.00000000	     -0.40000000	      0.00000000	     -5.00270104	      0.00000000	      0.00000000	    -21.63306325	     -6.33102020	      1.99514628	      0.15985609	    -44.13545710	     -2.60914483	     66.41063244	     79.42206606	      0.00000000	      0.00000000	      5.78840932	    -19.92949228	     12.45903105	     86.75979926	     81.97650021	      0.00000000	      0.00000000
      2.06000000	     -7.93207929	     11.66081516	      6.83116391	     -0.96410239	      0.90142415	      0.20959116	     19.05315794	     -7.06948641	      4.31098813	    -52.73418931	      0.98440452	      4.11446608	      0.01522309	     -0.40000000	      0.00000000	     23.60177978	      0.00000000	      0.00000000	     66.75269498	      8.69124410	     -9.19787615	   -106.05762721	      0.98440452	      4.11446608	      0.00000000	     -0.40000000	      0.00000000	     -5.02905796	      0.00000000	      0.00000000	    -21.08764877	     -7.31984496	      2.31540029	     -2.60841401	    -45.18312774	     -6.94450641	     72.30761562	     80.45937345	      0.00000000	      0.00000000	      4.10127094	    -20.94374221	     11.21434460	     92.88937256	     84.22883836	      0.00000000	      0.00000000
      2.07000000	     -7.85986719	     12.44896598	      6.51204275	     -0.95322424	      0.90944184	      0.20841373	     17.00034529	     -8.13186254	      4.37794468	    -50.22424132	      0.98440452	      4.11446608	      0.01520489	     -0.40000000	      0.00000000	     22.56328597	      0.00000000	      0.00000000	     67.85297975	      8.63874885	     -9.97587442	   -106.39807930	      0.98440452	      4.11446608	      0.00000000	     -0.40000000	      0.00000000	     -5.08305721	      0.00000000	      0.00000000	    -20.48016130	     -8.37621999	      2.69180118	     -5.61041817	    -45.92378093	    -11.35321752	     78.19021388	     81.80368749	      0.00000000	      0.00000000	      2.65947095	    -21.74058116	     10.27353952	     98.60641664	     86.01486931	      0.00000000	      0.00000000
      2.08000000	     -7.90292036	     13.24738203	      6.22229339	     -0.94170506	      0.91795637	      0.20747926	     15.00173493	     -9.20217818	      4.48817318	    -47.63194514	      0.98440452	      4.11446608	      0.01517326	     -0.40000000	      0.00000000	     20.86627450	      0.00000000	      0.00000000	     69.03247587	      8.49131668	    -10.80066954	   -106.92852573	      0.98440452	      4.11446608	      0.00000000	     -0.40000000	      0.00000000	     -4.90724374	      0.00000000	      0.00000000	    -19.69332080	     -9.47441121	      3.08932544	     -8.68821426	    -46.23248403	    -15.68138091	     83.96960072	     82.74654702	      0.00000000	      0.00000000	      1.18269383	    -22.46662366	      9.25075416	    103.87784637	     87.00391931	      0.00000000	      0.00000000
      2.09000000	     -7.88298592	     13.94277990	      6.05257871	     -0.92957137	      0.92745279	      0.20606514	     12.86486806	    -10.25917204	      4.40954414	    -44.93480631	      0.98440452	      4.11446608	      0.01513182	     -0.40000000	      0.00000000	     19.22183629	      0.00000000	      0.00000000	     70.13658095	      8.43035374	    -11.47902418	   -107.62306019	      0.98440452	      4.11446608	      0.00000000	     -0.40000000	      0.00000000	     -4.93198098	      0.00000000	      0.00000000	    -18.96977078	    -10.38351242	      3.00250448	    -10.93140423	    -46.54618195	    -18.69003023	     89.30138631	     83.25140745	      0.00000000	      0.00000000	     -0.92194992	    -22.64173678	      7.35532359	    108.78802315	     87.54484839	      0.00000000	      0.00000000
